<?xml version="1.0" encoding="UTF-8" standalone="no"?>
<!-- Created with Inkscape (http://www.inkscape.org/) -->

<svg
   xmlns:dc="http://purl.org/dc/elements/1.1/"
   xmlns:cc="http://creativecommons.org/ns#"
   xmlns:rdf="http://www.w3.org/1999/02/22-rdf-syntax-ns#"
   xmlns:svg="http://www.w3.org/2000/svg"
   xmlns="http://www.w3.org/2000/svg"
   xmlns:sodipodi="http://sodipodi.sourceforge.net/DTD/sodipodi-0.dtd"
   xmlns:inkscape="http://www.inkscape.org/namespaces/inkscape"
   width="210mm"
   height="297mm"
   viewBox="0 0 744.09448819 1052.3622047"
   id="svg2"
   version="1.1"
   inkscape:version="0.91 r13725"
   sodipodi:docname="DH.svg">
  <defs
     id="defs4">
    <marker
       inkscape:stockid="Arrow1Lend"
       orient="auto"
       refY="0.0"
       refX="0.0"
       id="marker4524"
       style="overflow:visible;"
       inkscape:isstock="true">
      <path
         id="path4526"
         d="M 0.0,0.0 L 5.0,-5.0 L -12.5,0.0 L 5.0,5.0 L 0.0,0.0 z "
         style="fill-rule:evenodd;stroke:#cc0000;stroke-width:1pt;stroke-opacity:1;fill:#cc0000;fill-opacity:1"
         transform="scale(0.8) rotate(180) translate(12.5,0)" />
    </marker>
    <marker
       inkscape:stockid="Arrow1Lend"
       orient="auto"
       refY="0.0"
       refX="0.0"
       id="marker4517"
       style="overflow:visible;"
       inkscape:isstock="true">
      <path
         id="path4264"
         d="M 0.0,0.0 L 5.0,-5.0 L -12.5,0.0 L 5.0,5.0 L 0.0,0.0 z "
         style="fill-rule:evenodd;stroke:#cc0000;stroke-width:1pt;stroke-opacity:1;fill:#cc0000;fill-opacity:1"
         transform="scale(0.8) rotate(180) translate(12.5,0)" />
    </marker>
    <marker
       inkscape:stockid="Arrow1Lend"
       orient="auto"
       refY="0.0"
       refX="0.0"
       id="Arrow1Lend"
       style="overflow:visible;"
       inkscape:isstock="true">
      <path
         id="path4206"
         d="M 0.0,0.0 L 5.0,-5.0 L -12.5,0.0 L 5.0,5.0 L 0.0,0.0 z "
         style="fill-rule:evenodd;stroke:#000000;stroke-width:1pt;stroke-opacity:1;fill:#000000;fill-opacity:1"
         transform="scale(0.8) rotate(180) translate(12.5,0)" />
    </marker>
  </defs>
  <sodipodi:namedview
     id="base"
     pagecolor="#ffffff"
     bordercolor="#666666"
     borderopacity="1.0"
     inkscape:pageopacity="0.0"
     inkscape:pageshadow="2"
     inkscape:zoom="0.98994949"
     inkscape:cx="340.59129"
     inkscape:cy="878.32131"
     inkscape:document-units="px"
     inkscape:current-layer="layer1"
     showgrid="false"
     showguides="true"
     inkscape:guide-bbox="true"
     inkscape:snap-global="true"
     inkscape:snap-bbox="true"
     inkscape:bbox-paths="false"
     inkscape:bbox-nodes="false"
     inkscape:snap-bbox-edge-midpoints="false"
     inkscape:snap-bbox-midpoints="false"
     inkscape:snap-object-midpoints="false"
     inkscape:snap-center="false"
     inkscape:snap-text-baseline="true"
     inkscape:window-width="1536"
     inkscape:window-height="801"
     inkscape:window-x="-8"
     inkscape:window-y="-8"
     inkscape:window-maximized="1">
    <sodipodi:guide
       position="41.278839,849.9653"
       orientation="1,0"
       id="guide4203" />
  </sodipodi:namedview>
  <metadata
     id="metadata7">
    <rdf:RDF>
      <cc:Work
         rdf:about="">
        <dc:format>image/svg+xml</dc:format>
        <dc:type
           rdf:resource="http://purl.org/dc/dcmitype/StillImage" />
        <dc:title></dc:title>
      </cc:Work>
    </rdf:RDF>
  </metadata>
  <g
     inkscape:label="Ebene 1"
     inkscape:groupmode="layer"
     id="layer1">
    <path
       id="path3338"
       d="m 101.17268,38.433309 c -6.285076,0 -11.427416,6.399363 -11.427416,14.284312 0,7.88491 5.14234,14.28429 11.427416,14.28429 6.2851,0 11.42744,-6.39938 11.42744,-14.28429 0,-7.884949 -5.14234,-14.284312 -11.42744,-14.284312 z M 89.231024,67.001911 c -6.05655,0.28567 -10.91321,5.25661 -10.91321,11.42744 l 0,5.71372 45.709756,0 0,-5.71372 c 0,-6.17083 -4.79952,-11.14177 -10.91321,-11.42744 -3.08541,3.48535 -7.31356,5.71371 -11.94168,5.71371 -4.628096,0 -8.856246,-2.22836 -11.941656,-5.71371 z"
       inkscape:connector-curvature="0" />
    <path
       id="path3338-0"
       d="m 452.28988,38.4333 c -6.28509,0 -11.42743,6.399372 -11.42743,14.284311 0,7.88491 5.14234,14.28429 11.42743,14.28429 6.28508,0 11.42745,-6.39938 11.42745,-14.28429 0,-7.884939 -5.14237,-14.284311 -11.42745,-14.284311 z m -11.94167,28.568601 c -6.05654,0.28567 -10.91321,5.25662 -10.91321,11.42743 l 0,5.71373 45.70975,0 0,-5.71373 c 0,-6.17081 -4.79951,-11.14176 -10.91321,-11.42743 -3.0854,3.48534 -7.31356,5.71371 -11.94166,5.71371 -4.62811,0 -8.85627,-2.22837 -11.94167,-5.71371 z"
       inkscape:connector-curvature="0" />
    <text
       xml:space="preserve"
       style="font-style:normal;font-weight:normal;font-size:25.80389023px;line-height:125%;font-family:sans-serif;letter-spacing:0px;word-spacing:0px;fill:#000000;fill-opacity:1;stroke:none;stroke-width:1px;stroke-linecap:butt;stroke-linejoin:miter;stroke-opacity:1"
       x="74.650703"
       y="104.61394"
       id="text3375"
       sodipodi:linespacing="125%"><tspan
         sodipodi:role="line"
         id="tspan3377"
         x="74.650703"
         y="104.61394">\textsc{A}</tspan></text>
    <text
       xml:space="preserve"
       style="font-style:normal;font-weight:normal;font-size:25.80389023px;line-height:125%;font-family:sans-serif;letter-spacing:0px;word-spacing:0px;fill:#000000;fill-opacity:1;stroke:none;stroke-width:1px;stroke-linecap:butt;stroke-linejoin:miter;stroke-opacity:1"
       x="425.60303"
       y="104.61397"
       id="text3375-3"
       sodipodi:linespacing="125%"><tspan
         sodipodi:role="line"
         id="tspan3377-0"
         x="425.60303"
         y="104.61397">\textsc{B}</tspan></text>
    <path
       style="fill:none;fill-rule:evenodd;stroke:#000000;stroke-width:1.41921389;stroke-linecap:butt;stroke-linejoin:miter;stroke-miterlimit:4;stroke-dasharray:none;stroke-opacity:1;marker-end:url(#Arrow1Lend)"
       d="m 150.93732,61.288181 258.03889,0"
       id="path3397"
       inkscape:connector-curvature="0" />
    <path
       id="path4601"
       d="m 268.92099,76.217571 -6.84264,26.126439 9.12352,0 -3.01077,17.41762 -6.11275,0 4.56177,26.12644 13.68527,-26.12644 -6.84265,0 6.84265,-26.12643 -9.12352,0 4.56176,-17.417629 -6.84264,0 z"
       inkscape:connector-curvature="0" />
    <path
       id="path3338-1"
       d="m 315.25908,107.72797 c -6.28509,0 -11.42743,6.39937 -11.42743,14.28431 0,7.88493 5.14234,14.28428 11.42743,14.28428 6.28509,0 11.42746,-6.39935 11.42746,-14.28428 0,-7.88494 -5.14237,-14.28431 -11.42746,-14.28431 z m -11.94166,28.56859 c -6.05654,0.28569 -10.91322,5.25664 -10.91322,11.42745 l 0,5.71371 45.70976,0 0,-5.71371 c 0,-6.17081 -4.79951,-11.14176 -10.9132,-11.42745 -3.0854,3.48537 -7.31355,5.71374 -11.94168,5.71374 -4.62812,0 -8.85626,-2.22837 -11.94166,-5.71374 z"
       inkscape:connector-curvature="0"
       style="fill:#cc0000;fill-opacity:1" />
    <text
       xml:space="preserve"
       style="font-style:normal;font-weight:normal;font-size:25.80389023px;line-height:125%;font-family:sans-serif;letter-spacing:0px;word-spacing:0px;fill:#000000;fill-opacity:1;stroke:none;stroke-width:1px;stroke-linecap:butt;stroke-linejoin:miter;stroke-opacity:1"
       x="288.76343"
       y="175.26295"
       id="text3375-1"
       sodipodi:linespacing="125%"><tspan
         sodipodi:role="line"
         id="tspan3377-4"
         x="288.76343"
         y="175.26295">\textsc{E}</tspan></text>
    <path
       id="path4158"
       d="m 360.7681,108.91019 c -12.11382,0 -19.29593,14.36422 -19.29593,14.36422 0,0 7.18211,14.36421 19.29593,14.36421 11.82654,0 19.00865,-14.36421 19.00865,-14.36421 0,0 -7.18211,-14.36422 -19.00865,-14.36422 z m -0.14364,4.78807 c 5.31476,0 9.57614,4.30927 9.57614,9.57615 0,5.31476 -4.26138,9.57614 -9.57614,9.57614 -5.26688,0 -9.57615,-4.26138 -9.57615,-9.57614 0,-5.26688 4.30927,-9.57615 9.57615,-9.57615 z m 0,4.78807 c -2.63344,0 -4.78807,2.15464 -4.78807,4.78808 0,2.63344 2.15463,4.78807 4.78807,4.78807 2.63344,0 4.78807,-2.15463 4.78807,-4.78807 0,-0.47881 -0.19152,-0.90974 -0.28728,-1.34066 -0.38305,0.76609 -1.14914,1.34066 -2.10676,1.34066 -1.34065,0 -2.39403,-1.05338 -2.39403,-2.39404 0,-0.95761 0.57457,-1.72371 1.34066,-2.10675 -0.43093,-0.14364 -0.86186,-0.28729 -1.34066,-0.28729 z"
       inkscape:connector-curvature="0"
       style="fill:#cc0000;fill-opacity:1" />
    <text
       xml:space="preserve"
       style="font-style:normal;font-weight:normal;font-size:25.80389023px;line-height:125%;font-family:sans-serif;letter-spacing:0px;word-spacing:0px;fill:#000000;fill-opacity:1;stroke:none;stroke-width:1px;stroke-linecap:butt;stroke-linejoin:miter;stroke-opacity:1"
       x="41.278839"
       y="202.39693"
       id="text3375-5"
       sodipodi:linespacing="125%"><tspan
         sodipodi:role="line"
         id="tspan3377-7"
         x="41.278839"
         y="202.39693">$0&lt;a&lt;n$</tspan></text>
    <text
       xml:space="preserve"
       style="font-style:normal;font-weight:normal;font-size:25.80389023px;line-height:125%;font-family:sans-serif;letter-spacing:0px;word-spacing:0px;fill:#000000;fill-opacity:1;stroke:none;stroke-width:1px;stroke-linecap:butt;stroke-linejoin:miter;stroke-opacity:1"
       x="41.278839"
       y="235.04309"
       id="text3375-5-3"
       sodipodi:linespacing="125%"><tspan
         sodipodi:role="line"
         id="tspan3377-7-3"
         x="41.278839"
         y="235.04309">$g^a = h_a$</tspan></text>
    <text
       xml:space="preserve"
       style="font-style:normal;font-weight:normal;font-size:25.80389023px;line-height:125%;font-family:sans-serif;letter-spacing:0px;word-spacing:0px;fill:#000000;fill-opacity:1;stroke:none;stroke-width:1px;stroke-linecap:butt;stroke-linejoin:miter;stroke-opacity:1"
       x="41.278839"
       y="268.99768"
       id="text3375-5-3-2"
       sodipodi:linespacing="125%"><tspan
         sodipodi:role="line"
         id="tspan3377-7-3-5"
         x="41.278839"
         y="268.99768">$h_b^a = g^{ab}$</tspan></text>
    <text
       xml:space="preserve"
       style="font-style:normal;font-weight:normal;font-size:25.80389023px;line-height:125%;font-family:sans-serif;letter-spacing:0px;word-spacing:0px;fill:#000000;fill-opacity:1;stroke:none;stroke-width:1px;stroke-linecap:butt;stroke-linejoin:miter;stroke-opacity:1"
       x="433.01184"
       y="202.04099"
       id="text3375-5-2"
       sodipodi:linespacing="125%"><tspan
         sodipodi:role="line"
         id="tspan3377-7-4"
         x="433.01184"
         y="202.04099">$0&lt;b&lt;n$</tspan></text>
    <text
       xml:space="preserve"
       style="font-style:normal;font-weight:normal;font-size:25.80389023px;line-height:125%;font-family:sans-serif;letter-spacing:0px;word-spacing:0px;fill:#000000;fill-opacity:1;stroke:none;stroke-width:1px;stroke-linecap:butt;stroke-linejoin:miter;stroke-opacity:1"
       x="433.01184"
       y="234.68715"
       id="text3375-5-3-5"
       sodipodi:linespacing="125%"><tspan
         sodipodi:role="line"
         id="tspan3377-7-3-0"
         x="433.01184"
         y="234.68715">$g^b = h_b$</tspan></text>
    <text
       xml:space="preserve"
       style="font-style:normal;font-weight:normal;font-size:25.80389023px;line-height:125%;font-family:sans-serif;letter-spacing:0px;word-spacing:0px;fill:#000000;fill-opacity:1;stroke:none;stroke-width:1px;stroke-linecap:butt;stroke-linejoin:miter;stroke-opacity:1"
       x="433.01184"
       y="268.64175"
       id="text3375-5-3-2-6"
       sodipodi:linespacing="125%"><tspan
         sodipodi:role="line"
         id="tspan3377-7-3-5-8"
         x="433.01184"
         y="268.64175">$h_a^b = g^{ab}$</tspan></text>
    <path
       style="fill:none;fill-rule:evenodd;stroke:#ee00ff;stroke-width:1px;stroke-linecap:butt;stroke-linejoin:miter;stroke-opacity:0"
       d="M 433.01184,234.68715 205.06097,268.99768"
       id="path4253"
       inkscape:connector-curvature="0" />
    <path
       style="fill:#cc0000;fill-opacity:1;fill-rule:evenodd;stroke:#cc0000;stroke-width:1.20000005;stroke-linecap:butt;stroke-linejoin:miter;stroke-miterlimit:4;stroke-dasharray:none;stroke-opacity:1;marker-end:url(#marker4517)"
       d="M 362.95092,232.34557 166.31478,270.00783"
       id="path4255"
       inkscape:connector-curvature="0"
       sodipodi:nodetypes="cc" />
    <path
       style="fill:none;fill-rule:evenodd;stroke:#cc0000;stroke-width:1.20000005;stroke-linecap:butt;stroke-linejoin:miter;stroke-miterlimit:4;stroke-dasharray:none;stroke-opacity:1;marker-end:url(#marker4524)"
       d="m 168.33508,234.13864 200.67676,34.50311"
       id="path4522"
       inkscape:connector-curvature="0"
       sodipodi:nodetypes="cc" />
  </g>
</svg>
