<?xml version="1.0" encoding="UTF-8" standalone="no"?>
<!-- Created with Inkscape (http://www.inkscape.org/) -->

<svg
   xmlns:dc="http://purl.org/dc/elements/1.1/"
   xmlns:cc="http://creativecommons.org/ns#"
   xmlns:rdf="http://www.w3.org/1999/02/22-rdf-syntax-ns#"
   xmlns:svg="http://www.w3.org/2000/svg"
   xmlns="http://www.w3.org/2000/svg"
   xmlns:sodipodi="http://sodipodi.sourceforge.net/DTD/sodipodi-0.dtd"
   xmlns:inkscape="http://www.inkscape.org/namespaces/inkscape"
   width="210mm"
   height="297mm"
   viewBox="0 0 744.09448819 1052.3622047"
   id="svg2"
   version="1.1"
   inkscape:version="0.91 r13725"
   sodipodi:docname="MITM.svg">
  <defs
     id="defs4">
    <marker
       inkscape:isstock="true"
       style="overflow:visible;"
       id="marker4789"
       refX="0.0"
       refY="0.0"
       orient="auto"
       inkscape:stockid="Arrow1Lend">
      <path
         transform="scale(0.8) rotate(180) translate(12.5,0)"
         style="fill-rule:evenodd;stroke:#000000;stroke-width:1pt;stroke-opacity:1;fill:#000000;fill-opacity:1"
         d="M 0.0,0.0 L 5.0,-5.0 L -12.5,0.0 L 5.0,5.0 L 0.0,0.0 z "
         id="path4791" />
    </marker>
    <marker
       inkscape:isstock="true"
       style="overflow:visible;"
       id="marker4596"
       refX="0.0"
       refY="0.0"
       orient="auto"
       inkscape:stockid="Arrow1Lend">
      <path
         transform="scale(0.8) rotate(180) translate(12.5,0)"
         style="fill-rule:evenodd;stroke:#000000;stroke-width:1pt;stroke-opacity:1;fill:#000000;fill-opacity:1"
         d="M 0.0,0.0 L 5.0,-5.0 L -12.5,0.0 L 5.0,5.0 L 0.0,0.0 z "
         id="path4598" />
    </marker>
    <marker
       inkscape:stockid="Arrow1Lend"
       orient="auto"
       refY="0.0"
       refX="0.0"
       id="marker4524"
       style="overflow:visible;"
       inkscape:isstock="true">
      <path
         id="path4526"
         d="M 0.0,0.0 L 5.0,-5.0 L -12.5,0.0 L 5.0,5.0 L 0.0,0.0 z "
         style="fill-rule:evenodd;stroke:#cc0000;stroke-width:1pt;stroke-opacity:1;fill:#cc0000;fill-opacity:1"
         transform="scale(0.8) rotate(180) translate(12.5,0)" />
    </marker>
    <marker
       inkscape:stockid="Arrow1Lend"
       orient="auto"
       refY="0.0"
       refX="0.0"
       id="marker4517"
       style="overflow:visible;"
       inkscape:isstock="true">
      <path
         id="path4264"
         d="M 0.0,0.0 L 5.0,-5.0 L -12.5,0.0 L 5.0,5.0 L 0.0,0.0 z "
         style="fill-rule:evenodd;stroke:#cc0000;stroke-width:1pt;stroke-opacity:1;fill:#cc0000;fill-opacity:1"
         transform="scale(0.8) rotate(180) translate(12.5,0)" />
    </marker>
    <marker
       inkscape:stockid="Arrow1Lend"
       orient="auto"
       refY="0.0"
       refX="0.0"
       id="Arrow1Lend"
       style="overflow:visible;"
       inkscape:isstock="true"
       inkscape:collect="always">
      <path
         id="path4206"
         d="M 0.0,0.0 L 5.0,-5.0 L -12.5,0.0 L 5.0,5.0 L 0.0,0.0 z "
         style="fill-rule:evenodd;stroke:#000000;stroke-width:1pt;stroke-opacity:1;fill:#000000;fill-opacity:1"
         transform="scale(0.8) rotate(180) translate(12.5,0)" />
    </marker>
    <marker
       inkscape:stockid="Arrow1Lend"
       orient="auto"
       refY="0"
       refX="0"
       id="Arrow1Lend-8"
       style="overflow:visible"
       inkscape:isstock="true">
      <path
         inkscape:connector-curvature="0"
         id="path4206-1"
         d="M 0,0 5,-5 -12.5,0 5,5 0,0 Z"
         style="fill:#000000;fill-opacity:1;fill-rule:evenodd;stroke:#000000;stroke-width:1pt;stroke-opacity:1"
         transform="matrix(-0.8,0,0,-0.8,-10,0)" />
    </marker>
    <marker
       inkscape:isstock="true"
       style="overflow:visible"
       id="marker4596-9"
       refX="0"
       refY="0"
       orient="auto"
       inkscape:stockid="Arrow1Lend">
      <path
         inkscape:connector-curvature="0"
         transform="matrix(-0.8,0,0,-0.8,-10,0)"
         style="fill:#000000;fill-opacity:1;fill-rule:evenodd;stroke:#000000;stroke-width:1pt;stroke-opacity:1"
         d="M 0,0 5,-5 -12.5,0 5,5 0,0 Z"
         id="path4598-3" />
    </marker>
  </defs>
  <sodipodi:namedview
     id="base"
     pagecolor="#ffffff"
     bordercolor="#666666"
     borderopacity="1.0"
     inkscape:pageopacity="0.0"
     inkscape:pageshadow="2"
     inkscape:zoom="1.4"
     inkscape:cx="502.79017"
     inkscape:cy="934.56573"
     inkscape:document-units="px"
     inkscape:current-layer="layer1"
     showgrid="false"
     showguides="true"
     inkscape:guide-bbox="true"
     inkscape:snap-global="true"
     inkscape:snap-bbox="true"
     inkscape:bbox-paths="false"
     inkscape:bbox-nodes="false"
     inkscape:snap-bbox-edge-midpoints="false"
     inkscape:snap-bbox-midpoints="false"
     inkscape:snap-object-midpoints="false"
     inkscape:snap-center="false"
     inkscape:snap-text-baseline="true"
     inkscape:window-width="1536"
     inkscape:window-height="801"
     inkscape:window-x="-8"
     inkscape:window-y="-8"
     inkscape:window-maximized="1">
    <sodipodi:guide
       position="41.278839,849.9653"
       orientation="1,0"
       id="guide4203" />
  </sodipodi:namedview>
  <metadata
     id="metadata7">
    <rdf:RDF>
      <cc:Work
         rdf:about="">
        <dc:format>image/svg+xml</dc:format>
        <dc:type
           rdf:resource="http://purl.org/dc/dcmitype/StillImage" />
        <dc:title></dc:title>
      </cc:Work>
    </rdf:RDF>
  </metadata>
  <g
     inkscape:label="Ebene 1"
     inkscape:groupmode="layer"
     id="layer1">
    <path
       id="path3338"
       d="m 101.17268,38.433309 c -6.285076,0 -11.427416,6.399363 -11.427416,14.284312 0,7.88491 5.14234,14.28429 11.427416,14.28429 6.2851,0 11.42744,-6.39938 11.42744,-14.28429 0,-7.884949 -5.14234,-14.284312 -11.42744,-14.284312 z M 89.231024,67.001911 c -6.05655,0.28567 -10.91321,5.25661 -10.91321,11.42744 l 0,5.71372 45.709756,0 0,-5.71372 c 0,-6.17083 -4.79952,-11.14177 -10.91321,-11.42744 -3.08541,3.48535 -7.31356,5.71371 -11.94168,5.71371 -4.628096,0 -8.856246,-2.22836 -11.941656,-5.71371 z"
       inkscape:connector-curvature="0" />
    <path
       id="path3338-0"
       d="m 584.28988,38.4333 c -6.28509,0 -11.42743,6.399372 -11.42743,14.284311 0,7.88491 5.14234,14.28429 11.42743,14.28429 6.28508,0 11.42745,-6.39938 11.42745,-14.28429 0,-7.884939 -5.14237,-14.284311 -11.42745,-14.284311 z m -11.94167,28.568601 c -6.05654,0.28567 -10.91321,5.25662 -10.91321,11.42743 l 0,5.71373 45.70975,0 0,-5.71373 c 0,-6.17081 -4.79951,-11.14176 -10.91321,-11.42743 -3.0854,3.48534 -7.31356,5.71371 -11.94166,5.71371 -4.62811,0 -8.85627,-2.22837 -11.94167,-5.71371 z"
       inkscape:connector-curvature="0" />
    <text
       xml:space="preserve"
       style="font-style:normal;font-weight:normal;font-size:25.80389023px;line-height:125%;font-family:sans-serif;letter-spacing:0px;word-spacing:0px;fill:#000000;fill-opacity:1;stroke:none;stroke-width:1px;stroke-linecap:butt;stroke-linejoin:miter;stroke-opacity:1"
       x="74.650703"
       y="104.61394"
       id="text3375"
       sodipodi:linespacing="125%"><tspan
         sodipodi:role="line"
         id="tspan3377"
         x="74.650703"
         y="104.61394">\textsc{A}</tspan></text>
    <text
       xml:space="preserve"
       style="font-style:normal;font-weight:normal;font-size:25.80389023px;line-height:125%;font-family:sans-serif;letter-spacing:0px;word-spacing:0px;fill:#000000;fill-opacity:1;stroke:none;stroke-width:1px;stroke-linecap:butt;stroke-linejoin:miter;stroke-opacity:1"
       x="557.60303"
       y="104.61397"
       id="text3375-3"
       sodipodi:linespacing="125%"><tspan
         sodipodi:role="line"
         id="tspan3377-0"
         x="557.60303"
         y="104.61397">\textsc{B}</tspan></text>
    <path
       style="fill:none;fill-rule:evenodd;stroke:#000000;stroke-width:0.96385998;stroke-linecap:butt;stroke-linejoin:miter;stroke-miterlimit:4;stroke-dasharray:none;stroke-opacity:1;marker-end:url(#Arrow1Lend)"
       d="m 150.93732,61.288181 119.01929,0"
       id="path3397"
       inkscape:connector-curvature="0" />
    <path
       id="path3338-1"
       d="m 321.97337,6.2993982 c -6.28509,0 -11.42743,6.3993698 -11.42743,14.2843098 0,7.88493 5.14234,14.28428 11.42743,14.28428 6.28509,0 11.42746,-6.39935 11.42746,-14.28428 0,-7.88494 -5.14237,-14.2843098 -11.42746,-14.2843098 z M 310.03171,34.867988 c -6.05654,0.28569 -10.91322,5.25664 -10.91322,11.42745 l 0,5.71371 45.70976,0 0,-5.71371 c 0,-6.17081 -4.79951,-11.14176 -10.9132,-11.42745 -3.0854,3.48537 -7.31355,5.71374 -11.94168,5.71374 -4.62812,0 -8.85626,-2.22837 -11.94166,-5.71374 z"
       inkscape:connector-curvature="0"
       style="fill:#cc0000;fill-opacity:1" />
    <text
       xml:space="preserve"
       style="font-style:normal;font-weight:normal;font-size:25.80389023px;line-height:125%;font-family:sans-serif;letter-spacing:0px;word-spacing:0px;fill:#000000;fill-opacity:1;stroke:none;stroke-width:1px;stroke-linecap:butt;stroke-linejoin:miter;stroke-opacity:1"
       x="295.47772"
       y="73.834381"
       id="text3375-1"
       sodipodi:linespacing="125%"><tspan
         sodipodi:role="line"
         id="tspan3377-4"
         x="295.47772"
         y="73.834381">\textsc{E}</tspan></text>
    <path
       id="path4158"
       d="m 367.48239,7.4816182 c -12.11382,0 -19.29593,14.3642198 -19.29593,14.3642198 0,0 7.18211,14.36421 19.29593,14.36421 11.82654,0 19.00865,-14.36421 19.00865,-14.36421 0,0 -7.18211,-14.3642198 -19.00865,-14.3642198 z m -0.14364,4.7880698 c 5.31476,0 9.57614,4.30927 9.57614,9.57615 0,5.31476 -4.26138,9.57614 -9.57614,9.57614 -5.26688,0 -9.57615,-4.26138 -9.57615,-9.57614 0,-5.26688 4.30927,-9.57615 9.57615,-9.57615 z m 0,4.78807 c -2.63344,0 -4.78807,2.15464 -4.78807,4.78808 0,2.63344 2.15463,4.78807 4.78807,4.78807 2.63344,0 4.78807,-2.15463 4.78807,-4.78807 0,-0.47881 -0.19152,-0.90974 -0.28728,-1.34066 -0.38305,0.76609 -1.14914,1.34066 -2.10676,1.34066 -1.34065,0 -2.39403,-1.05338 -2.39403,-2.39404 0,-0.95761 0.57457,-1.72371 1.34066,-2.10675 -0.43093,-0.14364 -0.86186,-0.28729 -1.34066,-0.28729 z"
       inkscape:connector-curvature="0"
       style="fill:#cc0000;fill-opacity:1" />
    <path
       style="fill:none;fill-rule:evenodd;stroke:#000000;stroke-width:0.96385998;stroke-linecap:butt;stroke-linejoin:miter;stroke-miterlimit:4;stroke-dasharray:none;stroke-opacity:1;marker-end:url(#Arrow1Lend-8)"
       d="m 417.04118,60.984136 119.01929,0"
       id="path3397-0"
       inkscape:connector-curvature="0" />
    <text
       xml:space="preserve"
       style="font-style:normal;font-weight:normal;font-size:24.32982254px;line-height:125%;font-family:sans-serif;letter-spacing:0px;word-spacing:0px;fill:#000000;fill-opacity:1;stroke:none;stroke-width:1px;stroke-linecap:butt;stroke-linejoin:miter;stroke-opacity:1"
       x="152.47682"
       y="50.456539"
       id="text4540"
       sodipodi:linespacing="125%"><tspan
         sodipodi:role="line"
         id="tspan4542"
         x="152.47682"
         y="50.456539">I can do</tspan></text>
    <text
       xml:space="preserve"
       style="font-style:normal;font-weight:normal;font-size:24.32982254px;line-height:125%;font-family:sans-serif;letter-spacing:0px;word-spacing:0px;fill:#000000;fill-opacity:1;stroke:none;stroke-width:1px;stroke-linecap:butt;stroke-linejoin:miter;stroke-opacity:1"
       x="419.0936"
       y="51.420544"
       id="text4540-8"
       sodipodi:linespacing="125%"><tspan
         sodipodi:role="line"
         id="tspan4542-2"
         x="419.0936"
         y="51.420544">I can do</tspan></text>
    <text
       xml:space="preserve"
       style="font-style:normal;font-weight:normal;font-size:24.32982254px;line-height:125%;font-family:sans-serif;letter-spacing:0px;word-spacing:0px;fill:#000000;fill-opacity:1;stroke:none;stroke-width:1px;stroke-linecap:butt;stroke-linejoin:miter;stroke-opacity:1"
       x="421.09357"
       y="88.849113"
       id="text4540-5"
       sodipodi:linespacing="125%"><tspan
         sodipodi:role="line"
         id="tspan4542-8"
         x="421.09357"
         y="88.849113">$\F_p{\ast}, p \approx 512$ bits</tspan></text>
    <text
       xml:space="preserve"
       style="font-style:normal;font-weight:normal;font-size:24.32982254px;line-height:125%;font-family:sans-serif;letter-spacing:0px;word-spacing:0px;fill:#000000;fill-opacity:1;stroke:none;stroke-width:1px;stroke-linecap:butt;stroke-linejoin:miter;stroke-opacity:1"
       x="153.60989"
       y="88.613937"
       id="text4540-5-7"
       sodipodi:linespacing="125%"><tspan
         sodipodi:role="line"
         id="tspan4542-8-5"
         x="153.60989"
         y="88.613937">\textsc{ECC}, $\F_p^{\ast}$, \textsc{RSA}</tspan></text>
    <path
       style="fill:none;fill-rule:evenodd;stroke:#000000;stroke-width:1;stroke-linecap:butt;stroke-linejoin:miter;stroke-opacity:1;stroke-miterlimit:4;stroke-dasharray:1,3;stroke-dashoffset:0;marker-end:url(#marker4596)"
       d="m 532.85714,140.21934 -337.14285,0"
       id="path4588"
       inkscape:connector-curvature="0" />
    <text
       xml:space="preserve"
       style="font-style:normal;font-weight:normal;font-size:25.80389023px;line-height:125%;font-family:sans-serif;letter-spacing:0px;word-spacing:0px;fill:#000000;fill-opacity:1;stroke:none;stroke-width:1px;stroke-linecap:butt;stroke-linejoin:miter;stroke-opacity:1"
       x="329.90625"
       y="163.98087"
       id="text3375-6"
       sodipodi:linespacing="125%"><tspan
         sodipodi:role="line"
         id="tspan3377-7"
         x="329.90625"
         y="163.98087">$g^b$</tspan></text>
    <path
       style="fill:none;fill-rule:evenodd;stroke:#000000;stroke-width:1;stroke-linecap:butt;stroke-linejoin:miter;stroke-miterlimit:4;stroke-dasharray:1, 3;stroke-dashoffset:0;stroke-opacity:1;marker-end:url(#marker4596-9)"
       d="m 192.66142,199.50505 337.14286,0"
       id="path4588-9"
       inkscape:connector-curvature="0" />
    <text
       xml:space="preserve"
       style="font-style:normal;font-weight:normal;font-size:25.80389023px;line-height:125%;font-family:sans-serif;letter-spacing:0px;word-spacing:0px;fill:#000000;fill-opacity:1;stroke:none;stroke-width:1px;stroke-linecap:butt;stroke-linejoin:miter;stroke-opacity:1"
       x="328.21454"
       y="225.91156"
       id="text3375-6-9"
       sodipodi:linespacing="125%"><tspan
         sodipodi:role="line"
         id="tspan3377-7-3"
         x="328.21454"
         y="225.91156">$g^a$</tspan></text>
    <text
       xml:space="preserve"
       style="font-style:normal;font-weight:normal;font-size:25.80389023px;line-height:125%;font-family:sans-serif;letter-spacing:0px;word-spacing:0px;fill:#000000;fill-opacity:1;stroke:none;stroke-width:1px;stroke-linecap:butt;stroke-linejoin:miter;stroke-opacity:1"
       x="405.43683"
       y="171.05441"
       id="text3375-6-1"
       sodipodi:linespacing="125%"><tspan
         sodipodi:role="line"
         id="tspan3377-7-1"
         x="405.43683"
         y="171.05441">stuff, $g \in \F_p^{\ast}$</tspan></text>
    <path
       style="fill:none;fill-rule:evenodd;stroke:#000000;stroke-width:1px;stroke-linecap:butt;stroke-linejoin:round;stroke-opacity:1"
       d="m 367.14286,130.21934 0,93.57143 15.71428,0 0,-93.57143 z"
       id="path4775"
       inkscape:connector-curvature="0" />
    <text
       xml:space="preserve"
       style="font-style:normal;font-weight:normal;font-size:40px;line-height:125%;font-family:sans-serif;letter-spacing:0px;word-spacing:0px;fill:#000000;fill-opacity:1;stroke:none;stroke-width:1px;stroke-linecap:butt;stroke-linejoin:miter;stroke-opacity:1"
       x="153.57143"
       y="266.64795"
       id="text4777"
       sodipodi:linespacing="125%"><tspan
         sodipodi:role="line"
         x="153.57143"
         y="266.64795"
         style="font-size:12.5px"
         id="tspan4795">needs to change the cipher spec to sound like \textsc{B} chooses $p \approx 512$ bits</tspan></text>
    <path
       style="fill:none;fill-rule:evenodd;stroke:#000000;stroke-width:1px;stroke-linecap:butt;stroke-linejoin:miter;stroke-opacity:1;marker-end:url(#marker4789)"
       d="M 367.85714,254.50507 375,227.3622"
       id="path4781"
       inkscape:connector-curvature="0" />
  </g>
</svg>
