<?xml version="1.0" encoding="UTF-8" standalone="no"?>
<!-- Created with Inkscape (http://www.inkscape.org/) -->

<svg
   xmlns:dc="http://purl.org/dc/elements/1.1/"
   xmlns:cc="http://creativecommons.org/ns#"
   xmlns:rdf="http://www.w3.org/1999/02/22-rdf-syntax-ns#"
   xmlns:svg="http://www.w3.org/2000/svg"
   xmlns="http://www.w3.org/2000/svg"
   xmlns:sodipodi="http://sodipodi.sourceforge.net/DTD/sodipodi-0.dtd"
   xmlns:inkscape="http://www.inkscape.org/namespaces/inkscape"
   width="210mm"
   height="297mm"
   viewBox="0 0 744.09448819 1052.3622047"
   id="svg2"
   version="1.1"
   inkscape:version="0.91 r13725"
   sodipodi:docname="caesar_cipher.svg">
  <defs
     id="defs4">
    <marker
       inkscape:stockid="Arrow1Lend"
       orient="auto"
       refY="0.0"
       refX="0.0"
       id="Arrow1Lend"
       style="overflow:visible;"
       inkscape:isstock="true">
      <path
         id="path4206"
         d="M 0.0,0.0 L 5.0,-5.0 L -12.5,0.0 L 5.0,5.0 L 0.0,0.0 z "
         style="fill-rule:evenodd;stroke:#000000;stroke-width:1pt;stroke-opacity:1;fill:#000000;fill-opacity:1"
         transform="scale(0.8) rotate(180) translate(12.5,0)" />
    </marker>
  </defs>
  <sodipodi:namedview
     id="base"
     pagecolor="#ffffff"
     bordercolor="#666666"
     borderopacity="1.0"
     inkscape:pageopacity="0.0"
     inkscape:pageshadow="2"
     inkscape:zoom="0.7"
     inkscape:cx="331.73376"
     inkscape:cy="957.7659"
     inkscape:document-units="px"
     inkscape:current-layer="layer1"
     showgrid="false"
     showguides="true"
     inkscape:guide-bbox="true"
     inkscape:snap-global="true"
     inkscape:snap-bbox="true"
     inkscape:bbox-paths="false"
     inkscape:bbox-nodes="false"
     inkscape:snap-bbox-edge-midpoints="false"
     inkscape:snap-bbox-midpoints="false"
     inkscape:snap-object-midpoints="false"
     inkscape:snap-center="false"
     inkscape:snap-text-baseline="true"
     inkscape:window-width="1536"
     inkscape:window-height="801"
     inkscape:window-x="-8"
     inkscape:window-y="-8"
     inkscape:window-maximized="1" />
  <metadata
     id="metadata7">
    <rdf:RDF>
      <cc:Work
         rdf:about="">
        <dc:format>image/svg+xml</dc:format>
        <dc:type
           rdf:resource="http://purl.org/dc/dcmitype/StillImage" />
        <dc:title></dc:title>
      </cc:Work>
    </rdf:RDF>
  </metadata>
  <g
     inkscape:label="Ebene 1"
     inkscape:groupmode="layer"
     id="layer1">
    <path
       id="path3338"
       d="m 101.17268,38.433309 c -6.285076,0 -11.427416,6.399363 -11.427416,14.284312 0,7.88491 5.14234,14.28429 11.427416,14.28429 6.2851,0 11.42744,-6.39938 11.42744,-14.28429 0,-7.884949 -5.14234,-14.284312 -11.42744,-14.284312 z M 89.231024,67.001911 c -6.05655,0.28567 -10.91321,5.25661 -10.91321,11.42744 l 0,5.71372 45.709756,0 0,-5.71372 c 0,-6.17083 -4.79952,-11.14177 -10.91321,-11.42744 -3.08541,3.48535 -7.31356,5.71371 -11.94168,5.71371 -4.628096,0 -8.856246,-2.22836 -11.941656,-5.71371 z"
       inkscape:connector-curvature="0" />
    <path
       id="path3338-0"
       d="m 452.28988,38.4333 c -6.28509,0 -11.42743,6.399372 -11.42743,14.284311 0,7.88491 5.14234,14.28429 11.42743,14.28429 6.28508,0 11.42745,-6.39938 11.42745,-14.28429 0,-7.884939 -5.14237,-14.284311 -11.42745,-14.284311 z m -11.94167,28.568601 c -6.05654,0.28567 -10.91321,5.25662 -10.91321,11.42743 l 0,5.71373 45.70975,0 0,-5.71373 c 0,-6.17081 -4.79951,-11.14176 -10.91321,-11.42743 -3.0854,3.48534 -7.31356,5.71371 -11.94166,5.71371 -4.62811,0 -8.85627,-2.22837 -11.94167,-5.71371 z"
       inkscape:connector-curvature="0" />
    <text
       xml:space="preserve"
       style="font-style:normal;font-weight:normal;font-size:25.80389023px;line-height:125%;font-family:sans-serif;letter-spacing:0px;word-spacing:0px;fill:#000000;fill-opacity:1;stroke:none;stroke-width:1px;stroke-linecap:butt;stroke-linejoin:miter;stroke-opacity:1"
       x="74.650703"
       y="104.61394"
       id="text3375"
       sodipodi:linespacing="125%"><tspan
         sodipodi:role="line"
         id="tspan3377"
         x="74.650703"
         y="104.61394">\textsc{A}</tspan></text>
    <text
       xml:space="preserve"
       style="font-style:normal;font-weight:normal;font-size:25.80389023px;line-height:125%;font-family:sans-serif;letter-spacing:0px;word-spacing:0px;fill:#000000;fill-opacity:1;stroke:none;stroke-width:1px;stroke-linecap:butt;stroke-linejoin:miter;stroke-opacity:1"
       x="425.60303"
       y="104.61397"
       id="text3375-3"
       sodipodi:linespacing="125%"><tspan
         sodipodi:role="line"
         id="tspan3377-0"
         x="425.60303"
         y="104.61397">\textsc{B}</tspan></text>
    <path
       style="fill:none;fill-rule:evenodd;stroke:#000000;stroke-width:1.41921389;stroke-linecap:butt;stroke-linejoin:miter;stroke-miterlimit:4;stroke-dasharray:none;stroke-opacity:1;marker-end:url(#Arrow1Lend)"
       d="m 150.93732,61.288181 258.03889,0"
       id="path3397"
       inkscape:connector-curvature="0" />
    <text
       xml:space="preserve"
       style="font-style:normal;font-weight:normal;font-size:25.80389023px;line-height:125%;font-family:sans-serif;letter-spacing:0px;word-spacing:0px;fill:#000000;fill-opacity:1;stroke:none;stroke-width:1px;stroke-linecap:butt;stroke-linejoin:miter;stroke-opacity:1"
       x="255.15947"
       y="57.712334"
       id="text3375-7"
       sodipodi:linespacing="125%"><tspan
         sodipodi:role="line"
         id="tspan3377-5"
         x="255.15947"
         y="57.712334">$E(m)$</tspan></text>
    <path
       id="path4601"
       d="m 268.92099,76.217571 -6.84264,26.126439 9.12352,0 -3.01077,17.41762 -6.11275,0 4.56177,26.12644 13.68527,-26.12644 -6.84265,0 6.84265,-26.12643 -9.12352,0 4.56176,-17.417629 -6.84264,0 z"
       inkscape:connector-curvature="0" />
    <path
       id="path3338-1"
       d="m 315.25908,107.72797 c -6.28509,0 -11.42743,6.39937 -11.42743,14.28431 0,7.88493 5.14234,14.28428 11.42743,14.28428 6.28509,0 11.42746,-6.39935 11.42746,-14.28428 0,-7.88494 -5.14237,-14.28431 -11.42746,-14.28431 z m -11.94166,28.56859 c -6.05654,0.28569 -10.91322,5.25664 -10.91322,11.42745 l 0,5.71371 45.70976,0 0,-5.71371 c 0,-6.17081 -4.79951,-11.14176 -10.9132,-11.42745 -3.0854,3.48537 -7.31355,5.71374 -11.94168,5.71374 -4.62812,0 -8.85626,-2.22837 -11.94166,-5.71374 z"
       inkscape:connector-curvature="0"
       style="fill:#cc0000;fill-opacity:1" />
    <text
       xml:space="preserve"
       style="font-style:normal;font-weight:normal;font-size:25.80389023px;line-height:125%;font-family:sans-serif;letter-spacing:0px;word-spacing:0px;fill:#000000;fill-opacity:1;stroke:none;stroke-width:1px;stroke-linecap:butt;stroke-linejoin:miter;stroke-opacity:1"
       x="288.76343"
       y="175.26295"
       id="text3375-1"
       sodipodi:linespacing="125%"><tspan
         sodipodi:role="line"
         id="tspan3377-4"
         x="288.76343"
         y="175.26295">\textsc{E}</tspan></text>
  </g>
</svg>
